<svg version="1.1" id="Layer_1" xmlns="http://www.w3.org/2000/svg" xmlns:xlink="http://www.w3.org/1999/xlink" x="0px" y="0px"
	 width="100%" viewBox="0 0 864 368" enable-background="new 0 0 864 368" xml:space="preserve">
<path fill="#000000" opacity="1.000000" stroke="none" 
	d="
M648.629456,301.682434 
	C614.180176,296.829926 586.797058,267.450012 586.010010,233.005783 
	C585.188232,197.040665 585.188904,161.029388 585.966003,125.062843 
	C586.727112,89.837624 615.599792,60.051064 650.251465,56.526707 
	C663.741150,55.154694 677.206543,55.903683 690.680176,55.736160 
	C708.003418,55.520771 725.331604,55.629982 742.657288,55.697220 
	C775.866272,55.826092 801.980286,73.753235 814.050293,104.659462 
	C817.505859,113.507637 817.947083,122.893372 818.019897,132.166840 
	C818.261963,162.985031 818.061768,193.806458 818.106506,224.626541 
	C818.136353,245.175858 812.942688,263.696655 798.315796,278.970276 
	C785.451355,292.403625 769.989014,301.374908 751.487793,301.894470 
	C718.529358,302.820068 685.526245,302.158203 652.541809,302.137848 
	C651.384033,302.137146 650.226379,301.897308 648.629456,301.682434 
M623.721863,254.757553 
	C632.157410,266.729584 644.107788,272.504059 658.342957,272.492767 
	C689.307739,272.468201 720.299561,273.816895 751.236511,271.746918 
	C770.100037,270.484741 787.526489,252.370132 787.678650,233.488068 
	C787.969971,197.343719 787.715820,161.194992 787.698242,125.048088 
	C787.695557,119.590393 786.162109,114.486465 783.735657,109.716179 
	C774.995728,92.533730 760.187378,85.548714 741.640930,85.449219 
	C715.161316,85.307167 688.679688,85.302383 662.200500,85.475647 
	C654.552795,85.525688 646.840149,86.225571 639.844604,89.802193 
	C622.936096,98.446999 615.573425,112.911606 615.469116,131.329300 
	C615.288818,163.146240 615.278564,194.965607 615.467651,226.782349 
	C615.525513,236.520508 617.209229,246.039963 623.721863,254.757553 
z"/>
<path fill="#000000" opacity="1.000000" stroke="none" 
	d="
M354.332764,68.017326 
	C354.323639,96.012344 354.414764,123.511787 354.207458,151.008987 
	C354.172394,155.658432 355.627350,156.990204 360.183197,156.977295 
	C403.180664,156.855453 446.185425,156.482849 489.173676,157.135101 
	C510.900757,157.464752 527.235352,139.616806 526.787415,119.178123 
	C526.367554,100.021797 526.811951,80.847862 526.651672,61.683556 
	C526.614319,57.212845 527.943298,55.347237 532.648132,55.591637 
	C538.963684,55.919720 545.312012,55.756435 551.641846,55.611668 
	C555.088684,55.532833 556.369263,56.961552 556.353516,60.363739 
	C556.248901,83.028557 556.829529,105.714554 556.017761,128.351730 
	C555.479004,143.376648 548.304199,156.028412 537.707764,166.715118 
	C532.664551,171.801300 531.818604,170.890274 537.863464,176.971161 
	C549.336609,188.512634 556.023254,202.507217 556.214111,218.929810 
	C556.516174,244.925171 556.246460,270.926758 556.397827,296.924713 
	C556.421692,301.036407 555.108093,302.593964 550.947876,302.414490 
	C544.792603,302.149048 538.608521,302.114319 532.454956,302.388794 
	C528.089172,302.583527 526.636719,301.008484 526.666443,296.638336 
	C526.829285,272.640564 526.290894,248.629578 526.894226,224.645782 
	C527.443176,202.827606 510.465149,186.590424 489.384735,186.834167 
	C446.392120,187.331253 403.390289,187.112030 360.392792,186.992477 
	C355.525055,186.978928 354.212006,188.588135 354.236023,193.321991 
	C354.408295,227.319489 354.318604,261.318268 354.321106,295.316650 
	C354.321625,302.365234 354.339081,302.370880 347.056091,302.359039 
	C341.056488,302.349274 335.055511,302.240601 329.057831,302.339417 
	C325.848419,302.392334 324.442627,301.030151 324.648224,297.863312 
	C324.712860,296.867920 324.644104,295.864197 324.644043,294.864288 
	C324.639038,217.701248 324.633270,140.538193 324.632843,63.375153 
	C324.632812,55.702736 324.648102,55.697723 332.316437,55.679020 
	C337.816132,55.665607 343.323425,55.842411 348.813110,55.605293 
	C352.856567,55.430641 354.764313,56.804951 354.369141,61.026291 
	C354.168152,63.173512 354.333099,65.354996 354.332764,68.017326 
z"/>
<path fill="#000000" opacity="1.000000" stroke="none" 
	d="
M81.001205,85.327827 
	C76.501732,85.329987 72.493240,85.168610 68.504425,85.379372 
	C64.512863,85.590279 62.654793,84.178070 62.794804,79.965851 
	C63.005093,73.639244 63.020596,67.297569 62.846561,60.969788 
	C62.731182,56.774757 64.556091,55.329098 68.568230,55.582596 
	C72.220688,55.813366 75.898300,55.652344 79.564819,55.653374 
	C126.063423,55.666409 172.562271,55.597328 219.060486,55.736458 
	C233.599594,55.779961 247.614182,58.587246 260.042999,66.602432 
	C281.425964,80.392021 294.526428,99.650993 295.000305,125.485512 
	C295.657349,161.304337 295.899933,197.164001 294.952026,232.969986 
	C293.935150,271.380585 261.833466,301.997742 223.418671,302.219513 
	C171.755447,302.517731 120.089272,302.280090 68.424767,302.418915 
	C63.917252,302.431000 62.593784,300.734985 62.781643,296.515625 
	C63.040867,290.693359 62.845676,284.851868 62.894844,279.019012 
	C62.946880,272.845520 63.204559,272.604431 69.463905,272.605988 
	C119.127907,272.618286 168.791962,272.682159 218.455856,272.619080 
	C229.996277,272.604401 240.836075,270.444397 250.045898,262.477325 
	C260.656128,253.298798 265.430267,241.563492 265.550354,228.041901 
	C265.840454,195.378952 265.837158,162.709961 265.570129,130.046524 
	C265.350525,103.183998 246.756607,85.481300 218.994232,85.406380 
	C173.163361,85.282700 127.331978,85.344055 81.001205,85.327827 
z"/>
</svg>